<svg enable-background="new 0 0 47.5 47.5" viewBox="0 0 47.5 47.5" xmlns="http://www.w3.org/2000/svg" xmlns:xlink="http://www.w3.org/1999/xlink"><clipPath id="a"><path d="m0 38h38v-38h-38z"/></clipPath><g clip-path="url(#a)" transform="matrix(1.25 0 0 -1.25 0 47.5)"><path d="m0 0c0-2.209-1.791-4-4-4h-28c-2.209 0-4 1.791-4 4v28c0 2.209 1.791 4 4 4h28c2.209 0 4-1.791 4-4z" fill="#77b255" transform="translate(37 5)"/><path d="m0 0c-.64 0-1.28.244-1.768.732l-6.5 6.5c-.976.977-.976 2.559 0 3.536.976.976 2.56.976 3.536 0l4.732-4.733 13.732 13.733c.977.976 2.559.976 3.536 0 .976-.977.976-2.559 0-3.536l-15.5-15.5c-.488-.488-1.128-.732-1.768-.732" fill="#fff" transform="translate(14.5 8)"/></g></svg>